<mxfile host="app.diagrams.net" modified="2023-06-29T07:01:04.692Z" agent="Mozilla/5.0 (Windows NT 10.0; Win64; x64) AppleWebKit/537.36 (KHTML, like Gecko) Chrome/114.0.0.0 Safari/537.36" version="21.5.2" etag="Uqzsp1Y51FzjP6mT8W-j" type="device">
  <diagram id="roOxqG8WAcAxsJxXnsWc" name="페이지-1">
    <mxGraphModel dx="1183" dy="625" grid="1" gridSize="10" guides="1" tooltips="1" connect="1" arrows="1" fold="1" page="1" pageScale="1" pageWidth="827" pageHeight="1169" math="0" shadow="0">
      <root>
        <mxCell id="0" />
        <mxCell id="1" parent="0" />
        <mxCell id="3jPWTvPLTUeBFX43HOSV-1" value="" style="rounded=0;whiteSpace=wrap;html=1;fillColor=none;" vertex="1" parent="1">
          <mxGeometry x="159.75" y="50" width="350.25" height="462.5" as="geometry" />
        </mxCell>
        <mxCell id="3jPWTvPLTUeBFX43HOSV-2" value="관리자" style="shape=umlActor;verticalLabelPosition=bottom;verticalAlign=top;html=1;" vertex="1" parent="1">
          <mxGeometry x="109" y="252" width="30" height="60" as="geometry" />
        </mxCell>
        <mxCell id="3jPWTvPLTUeBFX43HOSV-3" value="관리자 메뉴" style="text;strokeColor=none;fillColor=none;align=left;verticalAlign=middle;spacingLeft=4;spacingRight=4;overflow=hidden;points=[[0,0.5],[1,0.5]];portConstraint=eastwest;rotatable=0;whiteSpace=wrap;html=1;" vertex="1" parent="1">
          <mxGeometry x="293.935" y="50" width="81.88" height="30" as="geometry" />
        </mxCell>
        <mxCell id="3jPWTvPLTUeBFX43HOSV-4" value="" style="endArrow=none;endFill=0;endSize=12;html=1;rounded=0;entryX=0.006;entryY=0.433;entryDx=0;entryDy=0;entryPerimeter=0;" edge="1" parent="1" source="3jPWTvPLTUeBFX43HOSV-2" target="3jPWTvPLTUeBFX43HOSV-7">
          <mxGeometry width="160" relative="1" as="geometry">
            <mxPoint x="265.79999999999995" y="237.5999999999999" as="sourcePoint" />
            <mxPoint x="299" y="165" as="targetPoint" />
          </mxGeometry>
        </mxCell>
        <mxCell id="3jPWTvPLTUeBFX43HOSV-5" value="" style="endArrow=none;endFill=0;endSize=12;html=1;rounded=0;entryX=0.01;entryY=0.627;entryDx=0;entryDy=0;entryPerimeter=0;" edge="1" parent="1" source="3jPWTvPLTUeBFX43HOSV-2" target="3jPWTvPLTUeBFX43HOSV-14">
          <mxGeometry width="160" relative="1" as="geometry">
            <mxPoint x="265.6399999999999" y="216.9999999999999" as="sourcePoint" />
            <mxPoint x="351" y="279" as="targetPoint" />
          </mxGeometry>
        </mxCell>
        <mxCell id="3jPWTvPLTUeBFX43HOSV-41" value="확장 예정 범위" style="text;html=1;align=left;verticalAlign=middle;resizable=0;points=[];autosize=1;strokeColor=none;fillColor=none;" vertex="1" parent="1">
          <mxGeometry x="159.75" y="20" width="100" height="30" as="geometry" />
        </mxCell>
        <mxCell id="3jPWTvPLTUeBFX43HOSV-45" value="" style="group" vertex="1" connectable="0" parent="1">
          <mxGeometry x="179" y="290" width="300" height="173" as="geometry" />
        </mxCell>
        <mxCell id="3jPWTvPLTUeBFX43HOSV-7" value="신고 게시글&amp;nbsp; 목록 조회" style="ellipse;whiteSpace=wrap;html=1;" vertex="1" parent="3jPWTvPLTUeBFX43HOSV-45">
          <mxGeometry x="136.75" width="80" height="50" as="geometry" />
        </mxCell>
        <mxCell id="3jPWTvPLTUeBFX43HOSV-8" style="edgeStyle=orthogonalEdgeStyle;rounded=0;orthogonalLoop=1;jettySize=auto;html=1;exitX=0.5;exitY=1;exitDx=0;exitDy=0;" edge="1" parent="3jPWTvPLTUeBFX43HOSV-45" source="3jPWTvPLTUeBFX43HOSV-7" target="3jPWTvPLTUeBFX43HOSV-7">
          <mxGeometry relative="1" as="geometry" />
        </mxCell>
        <mxCell id="3jPWTvPLTUeBFX43HOSV-9" value="기간 설정" style="ellipse;whiteSpace=wrap;html=1;" vertex="1" parent="3jPWTvPLTUeBFX43HOSV-45">
          <mxGeometry y="50" width="80" height="50" as="geometry" />
        </mxCell>
        <mxCell id="3jPWTvPLTUeBFX43HOSV-10" value="&amp;lt;&amp;lt;include&amp;gt;&amp;gt;" style="rounded=0;orthogonalLoop=1;jettySize=auto;html=1;dashed=1;dashPattern=1 2;endArrow=open;endFill=0;entryX=0.929;entryY=0.247;entryDx=0;entryDy=0;entryPerimeter=0;exitX=0.063;exitY=0.775;exitDx=0;exitDy=0;exitPerimeter=0;" edge="1" parent="3jPWTvPLTUeBFX43HOSV-45" source="3jPWTvPLTUeBFX43HOSV-7" target="3jPWTvPLTUeBFX43HOSV-9">
          <mxGeometry x="-0.0243" relative="1" as="geometry">
            <mxPoint as="offset" />
            <mxPoint x="150" y="18" as="sourcePoint" />
            <mxPoint x="60" y="-145" as="targetPoint" />
          </mxGeometry>
        </mxCell>
        <mxCell id="3jPWTvPLTUeBFX43HOSV-22" value="" style="endArrow=block;html=1;rounded=0;exitX=0.525;exitY=-0.007;exitDx=0;exitDy=0;entryX=0.5;entryY=1;entryDx=0;entryDy=0;endFill=0;exitPerimeter=0;" edge="1" parent="3jPWTvPLTUeBFX43HOSV-45" source="3jPWTvPLTUeBFX43HOSV-38" target="3jPWTvPLTUeBFX43HOSV-7">
          <mxGeometry width="50" height="50" relative="1" as="geometry">
            <mxPoint x="350" y="30" as="sourcePoint" />
            <mxPoint x="400" y="-20" as="targetPoint" />
          </mxGeometry>
        </mxCell>
        <mxCell id="3jPWTvPLTUeBFX43HOSV-34" value="" style="group" vertex="1" connectable="0" parent="3jPWTvPLTUeBFX43HOSV-45">
          <mxGeometry x="50" y="98" width="250" height="75" as="geometry" />
        </mxCell>
        <mxCell id="3jPWTvPLTUeBFX43HOSV-35" value="처리상태별&lt;br style=&quot;border-color: var(--border-color);&quot;&gt;조회" style="ellipse;whiteSpace=wrap;html=1;rotation=0;" vertex="1" parent="3jPWTvPLTUeBFX43HOSV-34">
          <mxGeometry y="25" width="80" height="50" as="geometry" />
        </mxCell>
        <mxCell id="3jPWTvPLTUeBFX43HOSV-36" value="" style="endArrow=none;html=1;rounded=0;exitX=0.5;exitY=0;exitDx=0;exitDy=0;entryX=0.5;entryY=0;entryDx=0;entryDy=0;" edge="1" parent="3jPWTvPLTUeBFX43HOSV-34" source="3jPWTvPLTUeBFX43HOSV-37" target="3jPWTvPLTUeBFX43HOSV-35">
          <mxGeometry width="50" height="50" relative="1" as="geometry">
            <mxPoint x="70" y="-180" as="sourcePoint" />
            <mxPoint x="50" y="10" as="targetPoint" />
            <Array as="points">
              <mxPoint x="210" />
              <mxPoint x="185" />
              <mxPoint x="150" />
              <mxPoint x="65" />
              <mxPoint x="40" />
            </Array>
          </mxGeometry>
        </mxCell>
        <mxCell id="3jPWTvPLTUeBFX43HOSV-37" value="&lt;div&gt;상품분류로&lt;/div&gt;&lt;div&gt;조회&lt;/div&gt;" style="ellipse;whiteSpace=wrap;html=1;rotation=0;" vertex="1" parent="3jPWTvPLTUeBFX43HOSV-34">
          <mxGeometry x="170" y="25" width="80" height="50" as="geometry" />
        </mxCell>
        <mxCell id="3jPWTvPLTUeBFX43HOSV-38" value="신고사유별&lt;br&gt;조회" style="ellipse;whiteSpace=wrap;html=1;rotation=0;container=0;" vertex="1" parent="3jPWTvPLTUeBFX43HOSV-34">
          <mxGeometry x="85" y="25" width="80" height="50" as="geometry" />
        </mxCell>
        <mxCell id="3jPWTvPLTUeBFX43HOSV-46" value="" style="group" vertex="1" connectable="0" parent="1">
          <mxGeometry x="269" y="120" width="173.5" height="135" as="geometry" />
        </mxCell>
        <mxCell id="3jPWTvPLTUeBFX43HOSV-14" value="판매자&lt;br&gt;관리" style="ellipse;whiteSpace=wrap;html=1;" vertex="1" parent="3jPWTvPLTUeBFX43HOSV-46">
          <mxGeometry x="46.5" y="85" width="80" height="50" as="geometry" />
        </mxCell>
        <mxCell id="3jPWTvPLTUeBFX43HOSV-24" value="" style="group" vertex="1" connectable="0" parent="3jPWTvPLTUeBFX43HOSV-46">
          <mxGeometry width="173.5" height="57" as="geometry" />
        </mxCell>
        <mxCell id="3jPWTvPLTUeBFX43HOSV-25" value="판매자 승인" style="ellipse;whiteSpace=wrap;html=1;" vertex="1" parent="3jPWTvPLTUeBFX43HOSV-24">
          <mxGeometry width="80" height="50" as="geometry" />
        </mxCell>
        <mxCell id="3jPWTvPLTUeBFX43HOSV-26" value="판매자 정지" style="ellipse;whiteSpace=wrap;html=1;" vertex="1" parent="3jPWTvPLTUeBFX43HOSV-24">
          <mxGeometry x="93.5" width="80" height="50" as="geometry" />
        </mxCell>
        <mxCell id="3jPWTvPLTUeBFX43HOSV-27" value="" style="endArrow=none;html=1;rounded=0;entryX=0.5;entryY=1;entryDx=0;entryDy=0;exitX=0.457;exitY=0.998;exitDx=0;exitDy=0;exitPerimeter=0;" edge="1" parent="3jPWTvPLTUeBFX43HOSV-24" source="3jPWTvPLTUeBFX43HOSV-26" target="3jPWTvPLTUeBFX43HOSV-25">
          <mxGeometry width="50" height="50" relative="1" as="geometry">
            <mxPoint x="220" y="177" as="sourcePoint" />
            <mxPoint x="270" y="127" as="targetPoint" />
            <Array as="points">
              <mxPoint x="130" y="57" />
              <mxPoint x="120" y="57" />
              <mxPoint x="110" y="57" />
              <mxPoint x="90" y="57" />
              <mxPoint x="60" y="57" />
              <mxPoint x="40" y="57" />
            </Array>
          </mxGeometry>
        </mxCell>
        <mxCell id="3jPWTvPLTUeBFX43HOSV-28" value="" style="endArrow=block;html=1;rounded=0;entryX=0.542;entryY=-0.002;entryDx=0;entryDy=0;entryPerimeter=0;endFill=0;" edge="1" parent="3jPWTvPLTUeBFX43HOSV-24" target="3jPWTvPLTUeBFX43HOSV-14">
          <mxGeometry width="50" height="50" relative="1" as="geometry">
            <mxPoint x="90" y="57" as="sourcePoint" />
            <mxPoint x="90" y="77" as="targetPoint" />
          </mxGeometry>
        </mxCell>
      </root>
    </mxGraphModel>
  </diagram>
</mxfile>
